<svg width="114" height="114" viewBox="0 0 114 114" fill="none" xmlns="http://www.w3.org/2000/svg">
<path d="M102.6 37.525H11.4C10.735 37.525 10.089 37.3921 9.5 37.183V95.703C9.5 100.567 13.452 104.5 18.297 104.5H95.7031C100.548 104.5 104.5 100.567 104.5 95.703V37.183C103.911 37.3921 103.265 37.525 102.6 37.525ZM48.7731 64.011L37.411 68.2481L48.7731 72.485V75.905L33.5921 70.0151V66.4621L48.7731 60.572V64.011ZM53.58 83.049H49.894L60.7621 52.06H64.4291L53.58 83.049ZM80.408 70.0151L65.227 75.905V72.485L76.589 68.2481L65.227 64.011V60.572L80.408 66.4621V70.0151Z" fill="#DCA54C"/>
<path d="M95.7031 9.5H18.297C13.452 9.5 9.5 13.452 9.5 18.316V31.825C9.5 32.889 10.355 33.725 11.4 33.725H102.6C103.645 33.725 104.5 32.889 104.5 31.825V18.316C104.5 13.452 100.548 9.5 95.7031 9.5ZM23.6316 23.5208H22.5239C21.4737 23.5208 20.6239 22.6701 20.6239 21.6208C20.6239 20.5716 21.4737 19.7208 22.5239 19.7208H23.6316C24.6818 19.7208 25.5316 20.5716 25.5316 21.6208C25.5316 22.6701 24.6818 23.5208 23.6316 23.5208ZM32.6566 23.5208H31.5489C30.4987 23.5208 29.6489 22.6701 29.6489 21.6208C29.6489 20.5716 30.4987 19.7208 31.5489 19.7208H32.6566C33.7068 19.7208 34.5566 20.5716 34.5566 21.6208C34.5566 22.6701 33.7068 23.5208 32.6566 23.5208ZM41.6816 23.5208H40.5739C39.5237 23.5208 38.6739 22.6701 38.6739 21.6208C38.6739 20.5716 39.5237 19.7208 40.5739 19.7208H41.6816C42.7318 19.7208 43.5816 20.5716 43.5816 21.6208C43.5816 22.6701 42.7318 23.5208 41.6816 23.5208ZM91.4768 23.5208H50.7066C49.6564 23.5208 48.8066 22.6701 48.8066 21.6208C48.8066 20.5716 49.6564 19.7208 50.7066 19.7208H91.4768C92.527 19.7208 93.3768 20.5716 93.3768 21.6208C93.3768 22.6701 92.527 23.5208 91.4768 23.5208Z" fill="#303030"/>
</svg>
